
<svg width="20px" height="20px" viewBox="0 0 20 20" version="1.1" xmlns="http://www.w3.org/2000/svg" xmlns:xlink="http://www.w3.org/1999/xlink">
    <g id="Wallet" stroke="none" stroke-width="1" fill="none" fill-rule="evenodd">
        <g id="2.-Landing" transform="translate(-720.000000, -215.000000)" fill="#FF3B81">
            <g id="Group-4" transform="translate(720.000000, 214.000000)">
                <path d="M6.17633055,2.90441642 L6.44593663,1.63919299 L8.74208288,2.12603284 L9.36781863,1 L11.4240303,2.13692507 L12.3481148,1.24677971 L13.9836873,2.93622722 L15.1229009,2.3572212 L16.1917318,4.44967162 L17.4833601,4.24560962 L17.8489102,6.54782767 L19.1449929,6.72952448 L18.8192811,9.04128561 L20,9.59048636 L19.0094267,11.7094628 L19.9730876,12.574976 L18.4023413,14.3151019 L19.0670924,15.4186656 L17.051911,16.6264793 L17.3626908,17.8698304 L15.0781303,18.4380102 L15.0112151,19.7116326 L12.6601393,19.5887263 L12.1914913,20.8065416 L10.0099361,19.9712162 L9.20414602,21 L7.35993648,19.5627505 L6.29276227,20.3081244 L4.94835873,18.3929209 L3.71509177,18.7926311 L2.98969183,16.5656653 L1.69920497,16.5881345 L1.65817474,14.2433957 L0.423310451,13.89019 L1.07229839,11.6325627 L5.52891066e-14,10.9379462 L1.28224494,8.96840219 L0.459264645,7.95464887 L2.27526974,6.48775622 L1.78497714,5.27727559 L3.95489843,4.40276394 L3.84135374,3.10818932 L6.17633055,2.90441642 Z M7.85676548,4.15666657 L7.9245932,4.9300013 L5.93028805,5.10404386 L6.22378072,5.82864624 L4.36938233,6.57599731 L4.86572314,7.18739364 L3.31731834,8.43813001 L3.95310147,8.84997939 L2.8587407,10.530931 L3.5916866,10.740574 L3.03834389,12.6654813 L3.80596985,12.6521159 L3.84097341,14.652451 L4.57613418,14.4141804 L5.19534182,16.3151375 L5.83283529,15.8698766 L6.9810912,17.5056531 L7.4634429,16.8898157 L9.03949048,18.1180783 L9.32213289,17.3836119 L11.1822216,18.0958466 L11.2218967,17.3406951 L13.2284752,17.4455923 L13.0440138,16.7076091 L14.991885,16.2231654 L14.5964682,15.5667278 L16.3156525,14.5363221 L15.7412061,14.0203824 L17.0820087,12.5349959 L16.3766875,12.2069221 L17.2227368,10.3971031 L16.4468924,10.2883381 L16.7252432,8.31272444 L15.94626,8.43579457 L15.6345761,6.47282349 L14.9591179,6.81612557 L14.0469001,5.03027672 L13.4984156,5.55861687 L12.1038871,4.11815334 L11.731678,4.7879564 L9.97749013,3.81802697 L9.81677569,4.57223726 L7.85676548,4.15666657 Z" id="Rectangle-2-Copy-6"></path>
            </g>
        </g>
    </g>
</svg>