<svg id="Layer_1" data-name="Layer 1" xmlns="http://www.w3.org/2000/svg" viewBox="0 0 314 202"><defs><style>.cls-1{fill:#ff3b81;}.cls-2{fill:#fff;}</style></defs><title>card</title><rect class="cls-1" width="314" height="202" rx="29.59"/><g id="Wallet"><g id="_2.-Landing" data-name="2.-Landing"><g id="Group-4"><g id="Rectangle-2-Copy-6"><path class="cls-2" d="M125.69,35.18l2.21-10.36,18.79,4,5.12-9.21,16.83,9.3,7.57-7.28L189.6,35.44l9.32-4.74,8.75,17.12,10.57-1.67,3,18.85,10.6,1.49-2.66,18.92,9.66,4.49-8.11,17.35,7.89,7.08-12.85,14.25,5.44,9-16.5,9.89,2.55,10.18-18.7,4.65L198,172.75l-19.25-1-3.83,10-17.86-6.83-6.6,8.42-15.09-11.77-8.74,6.1-11-15.67-10.1,3.27L99.6,147,89,147.18,88.71,128,78.6,125.1l5.31-18.48-8.78-5.69,10.5-16.12-6.74-8.3,14.87-12-4-9.91,17.77-7.16-.93-10.6Zm13.75,10.17.56,6.33-16.32,1.43,2.4,5.93L110.9,65.15l4.06,5L102.29,80.4l5.2,3.37-9,13.76,6,1.71L100,115l6.29-.11.28,16.37,6-1.95,5.07,15.56,5.22-3.64,9.4,13.39,3.94-5,12.91,10,2.31-6,15.23,5.83.32-6.18,16.42.86-1.51-6,15.95-4-3.24-5.37,14.07-8.44-4.7-4.22,11-12.16-5.78-2.68,6.93-14.82-6.35-.89L212,79.37l-6.38,1-2.55-16.07-5.53,2.81L190.11,52.5l-4.49,4.33L174.21,45l-3.05,5.48L156.8,42.58l-1.31,6.17Z"/></g></g></g></g></svg>